<svg width="25" height="26" viewBox="0 0 25 26" fill="none" xmlns="http://www.w3.org/2000/svg">
<path d="M3.125 25.5C2.26562 25.5 1.53021 25.2205 0.91875 24.6614C0.30625 24.1014 0 23.4286 0 22.6429V9.78571C0 9.33333 0.110937 8.90476 0.332812 8.5C0.553646 8.09524 0.859375 7.7619 1.25 7.5L10.625 1.07143C10.9115 0.880953 11.2109 0.738095 11.5234 0.642857C11.8359 0.547619 12.1615 0.5 12.5 0.5C12.8385 0.5 13.1641 0.547619 13.4766 0.642857C13.7891 0.738095 14.0885 0.880953 14.375 1.07143L23.75 7.5C24.1406 7.7619 24.4469 8.09524 24.6688 8.5C24.8896 8.90476 25 9.33333 25 9.78571V22.6429C25 23.4286 24.6943 24.1014 24.0828 24.6614C23.4703 25.2205 22.7344 25.5 21.875 25.5H15.625V15.5H9.375V25.5H3.125Z" fill="#3B288A"/>
</svg>
